<svg width="20" height="20" viewBox="0 0 20 20" fill="black" xmlns="http://www.w3.org/2000/svg">
<g clip-path="url(#clip0_405_411)">
<path fill-rule="evenodd" clip-rule="evenodd" d="M9.99998 2.50001C5.85784 2.50001 2.49998 5.85787 2.49998 10C2.49998 14.1421 5.85784 17.5 9.99998 17.5C14.1421 17.5 17.5 14.1421 17.5 10C17.5 5.85787 14.1421 2.50001 9.99998 2.50001ZM0.833313 10C0.833313 4.9374 4.93737 0.833344 9.99998 0.833344C15.0626 0.833344 19.1666 4.9374 19.1666 10C19.1666 15.0626 15.0626 19.1667 9.99998 19.1667C4.93737 19.1667 0.833313 15.0626 0.833313 10ZM10.2151 6.68695C9.82714 6.6204 9.42818 6.6933 9.08884 6.89273C8.74951 7.09216 8.4917 7.40525 8.36109 7.77655C8.20836 8.21071 7.7326 8.43885 7.29844 8.28613C6.86429 8.1334 6.63614 7.65763 6.78887 7.22348C7.05009 6.48089 7.5657 5.85471 8.24437 5.45585C8.92304 5.05699 9.72097 4.91119 10.4968 5.04427C11.2727 5.17735 11.9764 5.58073 12.4834 6.18295C12.9902 6.78506 13.2677 7.54708 13.2666 8.33411C13.2663 9.6094 12.3208 10.4516 11.6456 10.9017C11.2825 11.1437 10.9254 11.3217 10.6624 11.4386C10.5297 11.4976 10.4179 11.5423 10.3374 11.573C10.2971 11.5884 10.2644 11.6003 10.2406 11.6088L10.2116 11.6189L10.2024 11.622L10.1992 11.6231L10.1979 11.6236C10.1976 11.6237 10.1968 11.6239 9.93331 10.8333L10.1968 11.6239C9.76022 11.7695 9.28828 11.5335 9.14274 11.0969C8.99725 10.6604 9.23301 10.1886 9.66935 10.0429L9.68221 10.0384C9.69503 10.0338 9.71604 10.0262 9.74407 10.0155C9.80026 9.99414 9.88382 9.96077 9.98549 9.91559C10.1912 9.82417 10.4591 9.68962 10.7211 9.51497C11.2957 9.13186 11.6 8.72429 11.6 8.33335L11.6 8.33211C11.6006 7.93851 11.4618 7.5574 11.2084 7.25629C10.9549 6.95517 10.603 6.75349 10.2151 6.68695ZM9.16665 14.1667C9.16665 13.7064 9.53974 13.3333 9.99998 13.3333H10.0083C10.4685 13.3333 10.8416 13.7064 10.8416 14.1667C10.8416 14.6269 10.4685 15 10.0083 15H9.99998C9.53974 15 9.16665 14.6269 9.16665 14.1667Z"/>
</g>
<defs>
<clipPath id="clip0_405_411">
<rect width="20" height="20" fill="black"/>
</clipPath>
</defs>
</svg>
