<svg width="20" height="20" viewBox="0 0 20 20" fill="none" xmlns="http://www.w3.org/2000/svg">
<path fill-rule="evenodd" clip-rule="evenodd" d="M9.4884 1.00887C9.78933 0.774821 10.2107 0.774821 10.5116 1.00887L18.0116 6.84221C18.2146 7.00009 18.3334 7.24284 18.3334 7.5V16.6667C18.3334 17.3297 18.07 17.9656 17.6011 18.4344C17.1323 18.9033 16.4964 19.1667 15.8334 19.1667H4.16669C3.50365 19.1667 2.86776 18.9033 2.39892 18.4344C1.93008 17.9656 1.66669 17.3297 1.66669 16.6667V7.5C1.66669 7.24284 1.78541 7.00009 1.9884 6.84221L9.4884 1.00887ZM8.33335 17.5H11.6667V10.8333H8.33335V17.5ZM13.3334 17.5V10C13.3334 9.53976 12.9603 9.16667 12.5 9.16667H7.50002C7.03978 9.16667 6.66669 9.53976 6.66669 10V17.5H4.16669C3.94567 17.5 3.73371 17.4122 3.57743 17.2559C3.42115 17.0996 3.33335 16.8877 3.33335 16.6667V7.90757L10 2.72238L16.6667 7.90757V16.6667C16.6667 16.8877 16.5789 17.0996 16.4226 17.2559C16.2663 17.4122 16.0544 17.5 15.8334 17.5H13.3334Z" fill="#000000"/>
</svg>
