<svg width="20" height="21" viewBox="-1 -1 20 21" fill="#0E3ED0" xmlns="http://www.w3.org/2000/svg">
<path fill-rule="evenodd" clip-rule="evenodd" d="M4.16669 3.83332C3.94567 3.83332 3.73371 3.92112 3.57743 4.0774C3.42115 4.23368 3.33335 4.44564 3.33335 4.66666V15.9881L5.2441 14.0774C5.40038 13.9211 5.61234 13.8333 5.83335 13.8333H15.8334C16.0544 13.8333 16.2663 13.7455 16.4226 13.5892C16.5789 13.433 16.6667 13.221 16.6667 13V4.66666C16.6667 4.44564 16.5789 4.23368 16.4226 4.0774C16.2663 3.92112 16.0544 3.83332 15.8334 3.83332H4.16669ZM2.39892 2.89889C2.86776 2.43005 3.50365 2.16666 4.16669 2.16666H15.8334C16.4964 2.16666 17.1323 2.43005 17.6011 2.89889C18.07 3.36773 18.3334 4.00362 18.3334 4.66666V13C18.3334 13.663 18.07 14.2989 17.6011 14.7678C17.1323 15.2366 16.4964 15.5 15.8334 15.5H6.17853L3.08928 18.5892C2.85094 18.8276 2.49251 18.8989 2.18112 18.7699C1.86972 18.6409 1.66669 18.337 1.66669 18V4.66666C1.66669 4.00362 1.93008 3.36773 2.39892 2.89889Z" fill="#0E3ED0"/>
</svg>
