<svg width="22" height="17" viewBox="0 0 22 17" fill="none" xmlns="http://www.w3.org/2000/svg">
<path fill-rule="evenodd" clip-rule="evenodd" d="M14 8.5C16.21 8.5 18 6.71 18 4.5C18 2.29 16.21 0.5 14 0.5C11.79 0.5 10 2.29 10 4.5C10 6.71 11.79 8.5 14 8.5ZM14 2.5C15.1 2.5 16 3.4 16 4.5C16 5.6 15.1 6.5 14 6.5C12.9 6.5 12 5.6 12 4.5C12 3.4 12.9 2.5 14 2.5ZM6 14.5C6 11.84 11.33 10.5 14 10.5C16.67 10.5 22 11.84 22 14.5V16.5H6V14.5ZM8 14.5C8.22 13.78 11.31 12.5 14 12.5C16.7 12.5 19.8 13.79 20 14.5H8ZM5 6V9H3V6H0V4H3V1H5V4H8V6H5Z" fill="#000000"/>
</svg>
