<svg width="20" height="20" viewBox="0 0 20 20" fill="none" xmlns="http://www.w3.org/2000/svg">
<g clip-path="url(#clip0_405_335)">
<path fill-rule="evenodd" clip-rule="evenodd" d="M10 2.16667C9.77899 2.16667 9.56703 2.25446 9.41074 2.41074C9.25446 2.56703 9.16667 2.77899 9.16667 3V3.14499C9.16495 3.57566 9.03733 3.99644 8.79953 4.35551C8.56173 4.71459 8.22413 4.99629 7.82828 5.16595C7.75781 5.19615 7.68368 5.21641 7.60801 5.2263C7.24831 5.35226 6.8611 5.38331 6.48417 5.31497C6.05 5.23624 5.64937 5.02927 5.33395 4.72072L5.32737 4.71429L5.27741 4.66426C5.20002 4.58677 5.10778 4.52498 5.00662 4.48304C4.90545 4.44111 4.79701 4.41952 4.6875 4.41952C4.57799 4.41952 4.46955 4.44111 4.36838 4.48304C4.26722 4.52498 4.17531 4.58645 4.09792 4.66393L4.09726 4.66458C4.01978 4.74198 3.95831 4.83388 3.91638 4.93505C3.87444 5.03621 3.85286 5.14465 3.85286 5.25417C3.85286 5.36368 3.87444 5.47212 3.91638 5.57328C3.95831 5.67445 4.01978 5.76636 4.09726 5.84375L4.15409 5.90058C4.46264 6.21601 4.66958 6.61667 4.7483 7.05083C4.82546 7.47636 4.77594 7.91497 4.60621 8.31231C4.45157 8.71777 4.18081 9.06889 3.82754 9.32157C3.46712 9.57935 3.03748 9.72274 2.59449 9.7331L2.575 9.73333H2.5C2.27899 9.73333 2.06703 9.82113 1.91074 9.97741C1.75446 10.1337 1.66667 10.3457 1.66667 10.5667C1.66667 10.7877 1.75446 10.9996 1.91074 11.1559C2.06703 11.3122 2.27899 11.4 2.5 11.4H2.64499C3.07566 11.4017 3.49644 11.5293 3.85551 11.7671C4.21334 12.0041 4.49433 12.3402 4.66418 12.7343C4.8409 13.1369 4.89342 13.5831 4.81497 14.0158C4.73624 14.45 4.52927 14.8506 4.22072 15.1661L4.21429 15.1726L4.16425 15.2226C4.08677 15.3 4.02498 15.3922 3.98304 15.4934C3.94111 15.5945 3.91952 15.703 3.91952 15.8125C3.91952 15.922 3.94111 16.0305 3.98304 16.1316C4.02498 16.2328 4.08645 16.3247 4.16393 16.4021L4.16458 16.4027C4.24198 16.4802 4.33388 16.5417 4.43505 16.5836C4.53622 16.6256 4.64465 16.6471 4.75417 16.6471C4.86368 16.6471 4.97212 16.6256 5.07328 16.5836C5.17445 16.5417 5.26636 16.4802 5.34375 16.4027L5.40058 16.3459C5.71601 16.0374 6.11667 15.8304 6.55083 15.7517C6.97635 15.6745 7.41497 15.7241 7.81231 15.8938C8.21777 16.0484 8.56889 16.3192 8.82157 16.6725C9.07935 17.0329 9.22274 17.4625 9.2331 17.9055L9.23333 17.925V18C9.23333 18.221 9.32113 18.433 9.47741 18.5893C9.63369 18.7455 9.84565 18.8333 10.0667 18.8333C10.2877 18.8333 10.4996 18.7455 10.6559 18.5893C10.8122 18.433 10.9 18.221 10.9 18V17.8583L10.9 17.855C10.9017 17.4243 11.0293 17.0036 11.2671 16.6445C11.5041 16.2866 11.8402 16.0056 12.2344 15.8358C12.637 15.6591 13.0832 15.6066 13.5158 15.685C13.95 15.7638 14.3506 15.9707 14.6661 16.2793L14.6726 16.2857L14.7226 16.3357C14.8 16.4132 14.8922 16.475 14.9934 16.517C15.0945 16.5589 15.203 16.5805 15.3125 16.5805C15.422 16.5805 15.5305 16.5589 15.6316 16.517C15.7328 16.475 15.8247 16.4136 15.9021 16.3361L15.9027 16.3354C15.9802 16.258 16.0417 16.1661 16.0836 16.0649C16.1256 15.9638 16.1471 15.8553 16.1471 15.7458C16.1471 15.6363 16.1256 15.5279 16.0836 15.4267C16.0417 15.3255 15.9802 15.2336 15.9027 15.1562L15.8459 15.0994C15.5374 14.784 15.3304 14.3833 15.2517 13.9492C15.1732 13.5165 15.2258 13.0703 15.4024 12.6677C15.5723 12.2736 15.8533 11.9375 16.2112 11.7005C16.5702 11.4627 16.991 11.3351 17.4217 11.3333L17.425 11.3333L17.5 11.3333C17.721 11.3333 17.933 11.2455 18.0893 11.0893C18.2455 10.933 18.3333 10.721 18.3333 10.5C18.3333 10.279 18.2455 10.067 18.0893 9.91074C17.933 9.75446 17.721 9.66667 17.5 9.66667H17.3583L17.355 9.66666C16.9243 9.66494 16.5036 9.53733 16.1445 9.29953C15.7854 9.06173 15.5037 8.72413 15.334 8.32828C15.3038 8.25781 15.2836 8.18368 15.2737 8.10801C15.1477 7.74831 15.1167 7.3611 15.185 6.98417C15.2638 6.55 15.4707 6.14938 15.7793 5.83395L15.7857 5.82738L15.8357 5.77741C15.9132 5.70002 15.975 5.60778 16.017 5.50662C16.0589 5.40545 16.0805 5.29701 16.0805 5.1875C16.0805 5.07799 16.0589 4.96955 16.017 4.86838C15.975 4.76722 15.9136 4.67531 15.8361 4.59792L15.8354 4.59726C15.758 4.51978 15.6661 4.45831 15.5649 4.41638C15.4638 4.37444 15.3553 4.35286 15.2458 4.35286C15.1363 4.35286 15.0279 4.37444 14.9267 4.41638C14.8256 4.45832 14.7336 4.51978 14.6562 4.59726L14.5994 4.65409C14.284 4.96264 13.8833 5.16958 13.4492 5.2483C13.0165 5.32676 12.5702 5.27423 12.1676 5.09751C11.7735 4.92767 11.4374 4.64667 11.2005 4.28885C10.9627 3.92977 10.8351 3.509 10.8333 3.07832L10.8333 3.075V3C10.8333 2.77899 10.7455 2.56703 10.5893 2.41074C10.433 2.25446 10.221 2.16667 10 2.16667ZM8.23223 1.23223C8.70107 0.763392 9.33696 0.5 10 0.5C10.663 0.5 11.2989 0.763392 11.7678 1.23223C12.2366 1.70107 12.5 2.33696 12.5 3V3.07292C12.5007 3.17812 12.5319 3.28087 12.59 3.3686C12.6484 3.45667 12.7312 3.52577 12.8283 3.56738L12.8365 3.5709C12.9355 3.6146 13.0453 3.62768 13.1518 3.60837C13.2571 3.58928 13.3544 3.5394 13.4314 3.46509L13.4771 3.41941C13.7093 3.18696 13.985 3.00257 14.2885 2.87676C14.592 2.75095 14.9173 2.68619 15.2458 2.68619C15.5744 2.68619 15.8997 2.75095 16.2032 2.87676C16.5067 3.00257 16.7824 3.18697 17.0146 3.41941C17.2467 3.65145 17.4309 3.92694 17.5566 4.23015C17.6824 4.53364 17.7471 4.85896 17.7471 5.1875C17.7471 5.51604 17.6824 5.84136 17.5566 6.14485C17.4308 6.4482 17.2465 6.72381 17.0143 6.95592C17.0141 6.95603 17.0144 6.95581 17.0143 6.95592L16.9683 7.00192C16.8939 7.0789 16.8441 7.17618 16.825 7.28152C16.8056 7.38801 16.8187 7.49785 16.8624 7.59686C16.8859 7.65023 16.9038 7.70577 16.9156 7.76256C16.9551 7.82066 17.0056 7.87082 17.0647 7.90996C17.1525 7.96806 17.2552 7.99934 17.3604 8H17.5C18.163 8 18.7989 8.26339 19.2678 8.73223C19.7366 9.20107 20 9.83696 20 10.5C20 11.163 19.7366 11.7989 19.2678 12.2678C18.7989 12.7366 18.163 13 17.5 13H17.4271C17.3219 13.0007 17.2191 13.0319 17.1314 13.09C17.0433 13.1484 16.9742 13.2312 16.9326 13.3283L16.9291 13.3365C16.8854 13.4355 16.8723 13.5453 16.8916 13.6518C16.9107 13.7571 16.9606 13.8544 17.0349 13.9314L17.0806 13.9771C17.0807 13.9772 17.0805 13.977 17.0806 13.9771C17.3129 14.2092 17.4975 14.4851 17.6232 14.7885C17.7491 15.092 17.8138 15.4173 17.8138 15.7458C17.8138 16.0744 17.7491 16.3997 17.6232 16.7032C17.4974 17.0067 17.313 17.2824 17.0806 17.5146L16.4917 16.925L17.0813 17.5139C16.8491 17.7464 16.5733 17.9308 16.2699 18.0566C15.9664 18.1824 15.641 18.2471 15.3125 18.2471C14.984 18.2471 14.6586 18.1824 14.3551 18.0566C14.0518 17.9308 13.7762 17.7465 13.5441 17.5143C13.544 17.5141 13.5442 17.5144 13.5441 17.5143L13.4981 17.4682C13.4211 17.3939 13.3238 17.3441 13.2185 17.325C13.112 17.3056 13.0022 17.3187 12.9031 17.3624L12.895 17.366C12.7979 17.4076 12.715 17.4767 12.6567 17.5647C12.5986 17.6525 12.5673 17.7552 12.5667 17.8604V18C12.5667 18.663 12.3033 19.2989 11.8344 19.7678C11.3656 20.2366 10.7297 20.5 10.0667 20.5C9.40362 20.5 8.76774 20.2366 8.2989 19.7678C7.83006 19.2989 7.56667 18.663 7.56667 18V17.937C7.56271 17.831 7.52772 17.7284 7.46595 17.642C7.40272 17.5536 7.31436 17.4863 7.21235 17.4488C7.19587 17.4427 7.17959 17.4361 7.16353 17.4291C7.06451 17.3854 6.95468 17.3723 6.84818 17.3916C6.74285 17.4107 6.64556 17.4606 6.56858 17.5349L6.52292 17.5806C6.52281 17.5807 6.52302 17.5805 6.52292 17.5806C6.2908 17.8129 6.01487 17.9975 5.71152 18.1232C5.40802 18.2491 5.08271 18.3138 4.75417 18.3138C4.42563 18.3138 4.10031 18.2491 3.79682 18.1232C3.49361 17.9976 3.21812 17.8134 2.98607 17.5813C2.75363 17.3491 2.56923 17.0733 2.44342 16.7699C2.31761 16.4664 2.25286 16.141 2.25286 15.8125C2.25286 15.484 2.31761 15.1586 2.44342 14.8551C2.56923 14.5517 2.75363 14.2759 2.98607 14.0437L3.03176 13.9981C3.10607 13.9211 3.15594 13.8238 3.17504 13.7185C3.19435 13.612 3.18131 13.5022 3.13761 13.4031L3.13401 13.395C3.09239 13.2979 3.02334 13.215 2.93526 13.1567C2.84753 13.0986 2.74479 13.0673 2.63958 13.0667H2.5C1.83696 13.0667 1.20107 12.8033 0.732233 12.3344C0.263392 11.8656 0 11.2297 0 10.5667C0 9.90363 0.263392 9.26774 0.732233 8.7989C1.20107 8.33006 1.83696 8.06667 2.5 8.06667H2.56303C2.66903 8.06271 2.7716 8.02772 2.85796 7.96595C2.94636 7.90272 3.0137 7.81436 3.05122 7.71235C3.05728 7.69587 3.06386 7.67959 3.07095 7.66353C3.11465 7.56451 3.12768 7.45468 3.10837 7.34818C3.08927 7.24285 3.0394 7.14557 2.96508 7.06859L2.91941 7.02292C2.68696 6.79073 2.50257 6.51501 2.37676 6.21152C2.25095 5.90802 2.18619 5.58271 2.18619 5.25417C2.18619 4.92563 2.25095 4.60031 2.37676 4.29682C2.50251 3.99346 2.68679 3.71786 2.91908 3.48574C3.15119 3.25346 3.4268 3.06917 3.73015 2.94342C4.03364 2.81761 4.35896 2.75286 4.6875 2.75286C5.01604 2.75286 5.34136 2.81761 5.64485 2.94342C5.94835 3.06923 6.22407 3.25363 6.45625 3.48607L6.50192 3.53175C6.5789 3.60607 6.67618 3.65594 6.78152 3.67504C6.88801 3.69435 6.99785 3.68131 7.09686 3.63761C7.15023 3.61406 7.20577 3.59624 7.26256 3.58435C7.32066 3.54491 7.37082 3.49436 7.40996 3.43526C7.46806 3.34753 7.49934 3.24479 7.5 3.13958V3C7.5 2.33696 7.76339 1.70107 8.23223 1.23223ZM10 8.83333C9.07953 8.83333 8.33333 9.57953 8.33333 10.5C8.33333 11.4205 9.07953 12.1667 10 12.1667C10.9205 12.1667 11.6667 11.4205 11.6667 10.5C11.6667 9.57953 10.9205 8.83333 10 8.83333ZM6.66667 10.5C6.66667 8.65905 8.15905 7.16667 10 7.16667C11.8409 7.16667 13.3333 8.65905 13.3333 10.5C13.3333 12.3409 11.8409 13.8333 10 13.8333C8.15905 13.8333 6.66667 12.3409 6.66667 10.5Z" fill="#000000"/>
</g>
<defs>
<clipPath id="clip0_405_335">
<rect width="20" height="20" fill="black"/>
</clipPath>
</defs>
</svg>
