<svg width="20" height="21" viewBox="0 0 38 37" fill="none" xmlns="http://www.w3.org/2000/svg">
<path fill-rule="evenodd" clip-rule="evenodd" d="M29.7333 29.6301C30.6518 28.2813 30.9942 27.5919 31.6948 26.0782C26.5265 24.1899 25.7014 17.1011 30.8074 14.3885C29.2507 12.5002 27.0558 11.4062 24.9853 11.4062C23.4909 11.4062 22.4634 11.7809 21.545 12.1256C20.7666 12.4103 20.0661 12.6651 19.1943 12.6651C18.2603 12.6651 17.4353 12.3803 16.5635 12.0806C15.6139 11.7509 14.6176 11.4062 13.3722 11.4062C11.0527 11.4062 8.57755 12.77 7.00527 15.1079C4.79474 18.405 5.18392 24.5795 8.7488 29.8549C10.0253 31.7432 11.7377 33.8563 13.9638 33.8863C14.8978 33.9013 15.5049 33.6316 16.1743 33.3468C16.9371 33.0171 17.7622 32.6574 19.2099 32.6574C20.6576 32.6424 21.4671 33.0171 22.2299 33.3468C22.8838 33.6316 23.4753 33.9013 24.3938 33.8863C26.651 33.8563 28.4568 31.5184 29.7333 29.6301Z" fill="#1D1E25"/>
<path fill-rule="evenodd" clip-rule="evenodd" d="M24.6582 3.91284C24.9072 5.56138 24.2067 7.19496 23.2882 8.33395C22.3075 9.56286 20.5951 10.522 18.945 10.462C18.6492 8.87345 19.412 7.23989 20.3461 6.14585C21.3891 4.94691 23.1481 4.01775 24.6582 3.91284Z" fill="#1D1E25"/>
</svg>
