<svg width="53" height="40" viewBox="0 0 53 40" fill="none" xmlns="http://www.w3.org/2000/svg">
<g clip-path="url(#clip0_26_75)">
<path d="M30.6425 16.1923C30.0465 15.7092 29.3277 15.3218 28.5291 15.0531C27.7305 14.7843 26.8684 14.6398 25.9943 14.6282C25.1201 14.6165 24.2518 14.738 23.4411 14.9853C22.6305 15.2325 21.894 15.6006 21.2758 16.0675C20.6576 16.5344 20.1702 17.0905 19.8428 17.7027C19.5154 18.3149 19.3545 18.9707 19.37 19.6308C19.3854 20.291 19.5767 20.942 19.9326 21.5452C20.2884 22.1483 20.8014 22.6911 21.4411 23.1412M38.9325 9.93173C35.2228 7.79626 30.7057 6.61321 26.0418 6.55562C10.8508 6.55562 2.17017 19.6667 2.17017 19.6667C4.86959 23.4659 8.61363 26.7851 13.1511 29.4017L38.9325 9.93173ZM21.4845 32.3845C22.9783 32.6486 24.5076 32.7806 26.0418 32.7779C41.2328 32.7779 49.9134 19.6667 49.9134 19.6667C48.5961 17.8056 47.0251 16.0534 45.2259 14.4387L21.4845 32.3845Z" stroke="#7E8CA0" stroke-width="2" stroke-linecap="round" stroke-linejoin="round"/>
<path d="M2.17017 37.6945L49.9134 1.63896" stroke="#7E8CA0" stroke-width="2" stroke-linecap="round" stroke-linejoin="round"/>
</g>
<defs>
<clipPath id="clip0_26_75">
<rect width="52.0836" height="39.3333" fill="white" transform="matrix(1 0 0 -1 0 39.3334)"/>
</clipPath>
</defs>
</svg>
