<svg width="443" height="321" viewBox="0 0 443 321" fill="white" xmlns="http://www.w3.org/2000/svg">
    <mask id="mask0_40_2616" style="mask-type: alpha" maskUnits="userSpaceOnUse" x="98" y="100" width="257" height="196">
        <radialGradient id="fade-gradient" cx="50%" cy="50%" r="50%" fx="50%" fy="50%">
            <stop offset="0%" style="stop-opacity: 1;" />
            <stop offset="100%" style="stop-opacity: 0;" />
        </radialGradient>
        <ellipse cx="226.5" cy="198" rx="128.5" ry="98" fill="url(#fade-gradient)" />
    </mask>
    <g mask="url(#mask0_40_2616)">
        <line x1="1.99944" y1="220.999" x2="443.001" y2="220.999" stroke="white" stroke-opacity="0.21" />
        <line x1="1.99944" y1="236" x2="443.001" y2="236" stroke="white" stroke-opacity="0.21" />
        <line x1="1.99944" y1="251" x2="443.001" y2="251" stroke="white" stroke-opacity="0.21" />
        <line x1="1.99944" y1="266" x2="443.001" y2="266" stroke="white" stroke-opacity="0.21" />
        <line x1="1.99944" y1="280.999" x2="443.001" y2="280.999" stroke="white" stroke-opacity="0.21" />
        <line x1="1.99944" y1="296" x2="443.001" y2="296" stroke="white" stroke-opacity="0.21" />
        <line x1="-0.000564575" y1="206" x2="441.001" y2="206" stroke="white" stroke-opacity="0.21" />
        <line x1="-0.000564575" y1="191" x2="441.001" y2="191" stroke="white" stroke-opacity="0.21" />
        <line x1="-0.000564575" y1="176" x2="441.001" y2="176" stroke="white" stroke-opacity="0.21" />
        <line x1="-0.000564575" y1="161" x2="441.001" y2="161" stroke="white" stroke-opacity="0.21" />
        <line x1="-0.000564575" y1="146" x2="441.001" y2="146" stroke="white" stroke-opacity="0.21" />
        <line x1="-0.000564575" y1="131" x2="441.001" y2="131" stroke="white" stroke-opacity="0.21" />
        <line x1="-0.000564575" y1="116" x2="441.001" y2="116" stroke="white" stroke-opacity="0.21" />
        <line x1="-0.000564575" y1="101" x2="441.001" y2="101" stroke="white" stroke-opacity="0.21" />
        <line x1="218.5" y1="320.999" x2="218.5" y2="-120.002" stroke="white" stroke-opacity="0.21" />
        <line x1="203.5" y1="320.999" x2="203.5" y2="-120.002" stroke="white" stroke-opacity="0.21" />
        <line x1="188.5" y1="320.999" x2="188.5" y2="-120.002" stroke="white" stroke-opacity="0.21" />
        <line x1="173.5" y1="320.999" x2="173.5" y2="-120.002" stroke="white" stroke-opacity="0.21" />
        <line x1="158.5" y1="320.999" x2="158.5" y2="-120.002" stroke="white" stroke-opacity="0.21" />
        <line x1="143.5" y1="320.999" x2="143.5" y2="-120.002" stroke="white" stroke-opacity="0.21" />
        <line x1="128.5" y1="320.999" x2="128.5" y2="-120.002" stroke="white" stroke-opacity="0.21" />
        <line x1="113.5" y1="320" x2="113.5" y2="-121.001" stroke="white" stroke-opacity="0.21" />
        <line x1="98.5" y1="320" x2="98.5" y2="-121.001" stroke="white" stroke-opacity="0.21" />
        <line x1="233.5" y1="320.999" x2="233.5" y2="-120.002" stroke="white" stroke-opacity="0.21" />
        <line x1="248.5" y1="320.999" x2="248.5" y2="-120.002" stroke="white" stroke-opacity="0.21" />
        <line x1="263.5" y1="320.999" x2="263.5" y2="-120.002" stroke="white" stroke-opacity="0.21" />
        <line x1="278.5" y1="320.999" x2="278.5" y2="-120.002" stroke="white" stroke-opacity="0.21" />
        <line x1="293.5" y1="320.999" x2="293.5" y2="-120.002" stroke="white" stroke-opacity="0.21" />
        <line x1="308.5" y1="320.999" x2="308.5" y2="-120.002" stroke="white" stroke-opacity="0.21" />
        <line x1="323.5" y1="320.999" x2="323.5" y2="-120.002" stroke="white" stroke-opacity="0.21" />
        <line x1="338.5" y1="320.999" x2="338.5" y2="-120.002" stroke="white" stroke-opacity="0.21" />
        <line x1="353.5" y1="320.999" x2="353.5" y2="-120.002" stroke="white" stroke-opacity="0.21" />
    </g>
</svg>
