<svg width="90" height="71" viewBox="0 0 90 71" fill="none" xmlns="http://www.w3.org/2000/svg">
<g clip-path="url(#clip0_29_98)">
<path d="M89.4276 35.8179H26.0831L26.0569 65.1611C26.0569 65.1611 26.6189 68.5014 30.0011 70.0983C33.3834 71.6952 36.7222 69.9129 36.7222 69.9129L86.2103 41.3503C86.2103 41.3503 89.1734 39.6141 89.4276 35.8179Z" fill="url(#paint0_linear_29_98)"/>
<path d="M32.7029 0.212314C31.5092 0.20075 30.2725 0.459213 29.2007 1.23613C25.7707 3.72226 26.11 5.73966 26.11 5.73966L26.083 35.8179H89.4276C89.4402 35.6293 89.4482 35.4371 89.4467 35.2383C89.4162 31.0376 85.8565 29.2679 85.8565 29.2679L37.7477 1.57102C37.7477 1.57102 35.3291 0.237754 32.7029 0.212314Z" fill="url(#paint1_linear_29_98)"/>
<path d="M0.676514 32.4594C0.676514 32.4594 8.7608 35.1454 15.4274 33.2719C22.0941 31.3985 24.7661 29.5272 24.7661 29.5272L43.3021 17.4804C43.3021 17.4804 46.915 15.1927 51.7211 14.1949C56.5271 13.1971 59.0308 14.2301 61.9264 15.6256C64.822 17.0212 83.363 27.7961 83.363 27.7961C83.363 27.7961 75.619 24.3409 68.842 24.6873C62.065 25.0336 61.0831 25.5909 56.5319 27.1955C51.9808 28.8002 41.6041 34.3671 41.6041 34.3671C41.6041 34.3671 32.7906 39.0928 21.0165 39.4543C9.24242 39.8158 0.676514 32.4594 0.676514 32.4594Z" fill="url(#paint2_linear_29_98)"/>
<path d="M0.209473 31.9807C0.209473 31.9807 7.31628 38.501 18.7192 39.0627C32.6524 39.9883 42.7489 32.7961 49.9356 29.3827C61.465 23.1454 72.5456 22.6535 82.4526 27.3843C89.6483 30.4115 89.7393 33.9857 89.6125 36.1185C89.4856 38.2512 88.5821 39.6506 86.9175 41.0736C85.2529 42.4966 67.3598 52.2306 67.3598 52.2306C74.6961 41.0042 58.5371 41.9133 50.786 44.9706C46.2689 46.7758 42.2605 49.9104 30.5754 49.617C11.3565 48.2578 0.209473 31.9807 0.209473 31.9807Z" fill="url(#paint3_linear_29_98)"/>
<path d="M49.7422 45.4114C62.1973 36.4915 79.8774 41.8777 67.3586 52.2309C68.184 42.3961 58.5246 41.644 49.7422 45.4114Z" fill="#1D50A4"/>
</g>
<defs>
<linearGradient id="paint0_linear_29_98" x1="28.439" y1="69.9913" x2="55.1097" y2="35.6843" gradientUnits="userSpaceOnUse">
<stop stop-color="#773B9E"/>
<stop offset="1" stop-color="#301B72"/>
</linearGradient>
<linearGradient id="paint1_linear_29_98" x1="29.3394" y1="1.84425" x2="57.0104" y2="36.0529" gradientUnits="userSpaceOnUse">
<stop stop-color="#783AA0"/>
<stop offset="1" stop-color="#301C70"/>
</linearGradient>
<linearGradient id="paint2_linear_29_98" x1="40.6455" y1="20.4298" x2="44.1387" y2="35.7199" gradientUnits="userSpaceOnUse">
<stop stop-color="#4B68B2"/>
<stop offset="1" stop-color="#7CBECB"/>
</linearGradient>
<linearGradient id="paint3_linear_29_98" x1="39.2447" y1="28.5235" x2="39.8434" y2="48.7079" gradientUnits="userSpaceOnUse">
<stop stop-color="#4354A9"/>
<stop offset="1" stop-color="#75B1CD"/>
</linearGradient>
<clipPath id="clip0_29_98">
<rect width="90" height="71" fill="white"/>
</clipPath>
</defs>
</svg>
