<svg width="1336" height="998" viewBox="0 0 1336 998" fill="none" xmlns="http://www.w3.org/2000/svg">
<path fill-rule="evenodd" clip-rule="evenodd" d="M-344.434 9.61802e-05L-331.219 53.6426C-319.007 110.107 -294.943 219.506 -148.799 221.771C-4.01826 223.328 210.867 100.402 251.5 195C293.496 290.305 164.971 601.725 224.54 679.406C283.105 759.909 599.292 660.226 726.5 679.406C854.712 695.766 793.944 830.989 854.877 909.377C912.079 989.173 1108.36 917.621 1184.5 980.5C1262 1044.09 1336.99 1134.49 1335 1203.64L1209.28 1383.93L1107.5 1474.86L1061.15 1450.82C1013.43 1426.07 948.947 1432.71 854.877 1383.93C762.17 1335.85 731.207 1452.08 638.5 1404C544.43 1355.22 344.207 1306.58 251.5 1258.5C157.43 1209.72 -54.729 1130.93 -148.799 1082.14C-241.506 1034.06 -316.635 828.426 -410.705 779.642C-503.412 731.564 -482.151 650.469 -574.858 602.391C-668.928 553.607 -761.635 505.53 -809.351 480.784L-855.705 456.745L-344.434 9.61802e-05Z" fill="url(#paint0_linear_26_16)"/>
<defs>
<linearGradient id="paint0_linear_26_16" x1="-270.231" y1="292.768" x2="438.543" y2="1554.63" gradientUnits="userSpaceOnUse">
<stop stop-color="#144552"/>
<stop offset="0.479648" stop-color="#272640"/>
<stop offset="1" stop-color="#4D194D"/>
</linearGradient>
</defs>
</svg>
