<svg width="1672" height="985" viewBox="0 0 1672 985" fill="none" xmlns="http://www.w3.org/2000/svg">
<path fill-rule="evenodd" clip-rule="evenodd" d="M0.365842 -397.273L56.7505 -373.594C115.913 -349.749 230.585 -303.293 249.082 -209.81C266.705 -117.395 190.055 21.1455 291.407 73.9098C393.634 127.742 672.833 97.7655 758.961 157.739C847.867 217.879 777.279 346.304 811 432.577C841.943 518.684 1037 413.536 1124 474.577C1212.03 533.649 1157.41 782.544 1230.21 848.826C1303.9 916.175 1447.11 949.114 1517.69 967.552L1589.3 984.021L1671.13 945.271L1641.38 908.977C1610.76 871.614 1620.86 782.157 1560.5 708.5C1501.01 635.91 1564.31 594.5 1541 445C1517.69 295.5 1619.99 273.59 1560.5 201C1500.14 127.343 1494.86 -67.8427 1434.5 -141.5C1375.01 -214.09 1101.36 -299.937 1041 -373.594C981.513 -446.184 762.487 -462.41 703 -535C642.638 -608.657 471.762 -518.266 441.144 -555.628L411.4 -591.923L0.365842 -397.273Z" fill="url(#paint0_linear_26_13)"/>
<defs>
<linearGradient id="paint0_linear_26_13" x1="259.985" y1="-235.902" x2="1365.78" y2="844.668" gradientUnits="userSpaceOnUse">
<stop stop-color="#4D194D"/>
<stop offset="0.479648" stop-color="#3E1F47"/>
<stop offset="1" stop-color="#312244"/>
</linearGradient>
</defs>
</svg>
