<svg width="1042" height="976" viewBox="0 0 1042 976" fill="none" xmlns="http://www.w3.org/2000/svg">
<path fill-rule="evenodd" clip-rule="evenodd" d="M-530.83 0.854327L-516.441 53.4488C-502.972 108.79 -476.478 216.019 -332.178 219.93C-189.241 223.134 69.2196 125.06 111.696 218.011C155.536 311.669 -12.9613 595.019 47.7807 671.652C107.603 751.032 398.948 621.655 524.983 641.884C651.938 659.366 613.582 826.453 675.688 903.793C734.147 982.466 894.43 972.099 971.154 1034.45C1049.24 1097.52 1041.49 1235.34 1041.26 1302.92L1037.38 1371.83L939.203 1459.54L892.85 1435.5C845.133 1410.76 752.426 1362.68 658.356 1313.89C565.649 1265.82 471.579 1217.03 378.872 1168.95C284.802 1120.17 190.732 1071.39 98.0253 1023.31C3.9551 974.523 -88.7518 926.446 -182.822 877.661C-275.529 829.584 -369.599 780.8 -463.669 732.015C-556.376 683.938 -650.446 635.153 -743.153 587.076C-837.223 538.291 -929.93 490.214 -977.647 465.468L-1024 441.43L-530.83 0.854327Z" fill="url(#paint0_linear_26_16)"/>
<defs>
<linearGradient id="paint0_linear_26_16" x1="-379.34" y1="234.874" x2="317.271" y2="1495.81" gradientUnits="userSpaceOnUse">
<stop stop-color="#144552"/>
<stop offset="0.479648" stop-color="#272640"/>
<stop offset="1" stop-color="#4D194D"/>
</linearGradient>
</defs>
</svg>
