<svg width="1546" height="963" viewBox="0 0 1546 963" fill="none" xmlns="http://www.w3.org/2000/svg">
<path fill-rule="evenodd" clip-rule="evenodd" d="M-125.634 -418.35L-69.2494 -394.671C-10.0869 -370.826 104.585 -324.37 123.083 -230.887C140.705 -138.472 64.0555 0.0686993 165.407 52.833C267.634 106.665 546.833 76.6887 632.962 136.662C721.868 196.802 615.799 347.793 649.52 434.066C680.463 520.173 851.195 541.563 938.198 602.604C1026.23 661.677 1031.41 761.468 1104.21 827.749C1177.9 895.098 1321.11 928.037 1391.69 946.475L1463.3 962.945L1545.13 924.195L1515.38 887.9C1484.77 850.538 1425.28 777.948 1364.92 704.291C1305.43 631.701 1245.07 558.043 1185.58 485.454C1125.22 411.796 1064.86 338.139 1005.37 265.55C945.007 191.892 885.52 119.303 825.158 45.6453C765.671 -26.9445 705.309 -100.602 644.947 -174.259C585.46 -246.849 525.098 -320.506 465.611 -393.096C405.249 -466.753 345.762 -539.343 315.144 -576.705L285.4 -613L-125.634 -418.35Z" fill="url(#paint0_linear_26_13)"/>
<defs>
<linearGradient id="paint0_linear_26_13" x1="133.985" y1="-256.979" x2="1239.78" y2="823.591" gradientUnits="userSpaceOnUse">
<stop stop-color="#4D194D"/>
<stop offset="0.479648" stop-color="#3E1F47"/>
<stop offset="1" stop-color="#312244"/>
</linearGradient>
</defs>
</svg>
